<?xml version="1.0" encoding="iso-8859-1"?>
<!-- Generator: Adobe Illustrator 19.0.0, SVG Export Plug-In . SVG Version: 6.00 Build 0)  -->
<svg version="1.1" id="Layer_1" xmlns="http://www.w3.org/2000/svg" xmlns:xlink="http://www.w3.org/1999/xlink" x="0px" y="0px"
	 viewBox="0 0 511.997 511.997" style="enable-background:new 0 0 511.997 511.997;" xml:space="preserve">
<rect x="26.669" y="490.669" style="fill:#CCD1D9;" width="405.33" height="21.328"/>
<polygon style="fill:#E6E9ED;" points="431.996,490.67 26.669,490.67 58.669,341.326 399.996,341.326 "/>
<path style="fill:#4A89DC;" d="M305.324,415.998c0,17.672-34.031,32-76,32s-76-14.328-76-32s34.031-32,76-32
	S305.324,398.326,305.324,415.998z"/>
<polygon style="fill:#E6E9ED;" points="436.949,3.123 482.199,48.373 282.121,248.451 229.325,255.998 236.888,203.201 "/>
<path style="fill:#4A89DC;" d="M229.325,277.326c-2.312,1.859-31.969,26.984-31.219,53.359
	c0.219,19.266,13.938,31.609,31.219,31.984c17.312-0.375,31-12.719,31.219-31.984C261.294,304.311,231.669,279.186,229.325,277.326z
	"/>
<polygon style="fill:#5D9CEC;" points="312.074,127.998 236.888,203.201 229.325,255.998 282.121,248.451 402.574,127.998 "/>
<path style="fill:#CCD1D9;" d="M474.652,66.592c-2.719,0-5.453-1.047-7.531-3.125l-45.266-45.25c-4.156-4.188-4.156-10.938,0-15.094
	c4.172-4.156,10.922-4.172,15.094,0l45.25,45.25c4.172,4.172,4.172,10.922,0,15.094C480.121,65.545,477.388,66.592,474.652,66.592z"
	/>
<g style="opacity:0.2;">
	<polygon style="fill:#FFFFFF;" points="244.419,210.748 444.48,10.654 436.949,3.123 236.888,203.201 229.325,255.998 
		238.138,254.732 	"/>
</g>
<g>
</g>
<g>
</g>
<g>
</g>
<g>
</g>
<g>
</g>
<g>
</g>
<g>
</g>
<g>
</g>
<g>
</g>
<g>
</g>
<g>
</g>
<g>
</g>
<g>
</g>
<g>
</g>
<g>
</g>
</svg>
